<?xml version="1.0" standalone="no"?>
<!DOCTYPE svg PUBLIC "-//W3C//DTD SVG 20010904//EN"
 "http://www.w3.org/TR/2001/REC-SVG-20010904/DTD/svg10.dtd">
<svg version="1.0" xmlns="http://www.w3.org/2000/svg"
 width="20px" height="20px" viewBox="0 0 1024.000000 1024.000000"
 preserveAspectRatio="xMidYMid meet">

<g transform="translate(0.000000,1024.000000) scale(0.100000,-0.100000)"
fill="#000000" stroke="none">
<path d="M5152 8653 c-10 -10 -91 -115 -179 -233 -342 -460 -731 -918 -811
-955 -88 -41 -116 -102 -71 -159 40 -50 112 -27 155 49 10 18 24 20 142 23
l132 4 -14 -34 c-68 -161 -159 -367 -171 -384 -15 -23 -37 -26 -285 -37 -94
-5 -128 -18 -175 -67 l-30 -31 -3 -177 c-2 -162 -1 -180 17 -209 25 -39 70
-64 125 -68 22 -1 47 -3 54 -4 6 0 12 -9 12 -20 0 -22 -26 -31 -92 -31 -84 0
-202 -21 -253 -44 -44 -21 -156 -123 -247 -227 -13 -15 -89 -100 -169 -190
-141 -159 -433 -494 -534 -614 -27 -33 -69 -80 -92 -106 l-43 -46 -167 -7
c-93 -3 -249 -8 -348 -11 -580 -16 -857 -27 -909 -36 -33 -6 -102 -30 -155
-53 -194 -87 -198 -88 -441 -107 -137 -10 -162 -15 -218 -41 -76 -35 -183
-133 -211 -192 -20 -40 -21 -60 -21 -363 l0 -320 67 -78 c80 -92 103 -124 103
-147 0 -16 -12 -18 -119 -18 -132 0 -145 -5 -156 -63 -4 -18 -5 -133 -3 -255
l3 -224 28 -24 c28 -24 30 -24 243 -24 126 0 214 -4 214 -9 0 -5 -5 -22 -11
-37 -13 -37 -32 -192 -32 -274 1 -183 4 -229 18 -269 8 -24 15 -60 15 -80 0
-58 18 -108 50 -138 24 -23 29 -34 24 -58 -4 -23 2 -40 25 -72 16 -23 39 -44
50 -48 12 -3 21 -13 21 -21 0 -32 42 -94 82 -122 24 -17 57 -44 73 -62 29 -31
112 -80 137 -80 7 -1 27 -7 43 -14 25 -11 -36 -13 -373 -12 -388 1 -404 0
-418 -18 -18 -26 -18 -61 2 -80 14 -15 466 -16 4828 -16 3729 0 4815 3 4824
12 7 7 12 27 12 44 0 65 16 63 -574 58 l-531 -5 55 29 c30 16 72 32 92 36 38
7 88 57 88 88 0 8 18 22 40 32 50 22 90 69 90 107 0 22 6 32 24 39 39 15 98
112 76 125 -18 11 -10 40 13 50 12 6 33 31 47 57 21 40 23 49 11 71 -11 21
-10 28 12 60 28 42 44 122 27 141 -7 9 -7 22 0 40 l10 26 118 0 c78 0 122 4
130 12 9 9 12 100 12 348 0 185 3 339 6 343 3 3 20 -15 38 -41 40 -59 83 -88
146 -97 93 -13 166 14 214 78 19 25 21 45 24 186 l3 158 -26 31 c-15 18 -33
32 -41 32 -27 0 -13 35 44 110 32 41 64 85 70 97 8 15 12 110 12 308 l0 287
-49 131 c-48 130 -315 926 -425 1268 -68 211 -102 273 -167 307 -35 18 -125
40 -206 52 -2 0 -3 20 -3 45 l0 45 66 0 c81 0 126 20 156 68 21 34 22 45 19
201 -2 149 -5 170 -24 205 -29 51 -83 79 -165 84 l-64 4 -92 189 -92 189 52 0
c49 0 54 -2 74 -35 25 -41 48 -55 88 -55 29 0 63 28 75 62 13 36 -14 78 -77
120 -33 23 -119 93 -191 156 -272 241 -556 546 -781 839 -98 127 -131 164
-157 171 -18 6 -294 13 -647 16 -338 4 -896 11 -1240 16 -972 14 -1104 14
-1128 -7z m728 -98 c626 -7 1122 -13 1750 -20 261 -3 482 -8 491 -11 9 -2 59
-60 112 -129 207 -266 450 -531 672 -735 80 -73 160 -144 178 -157 l32 -24
-1434 3 -1434 3 -55 60 c-265 289 -471 522 -657 744 -38 46 -105 124 -147 174
-43 49 -78 94 -78 99 0 5 12 7 28 4 15 -2 259 -8 542 -11z m-666 -62 c3 -21 6
-366 6 -766 l0 -728 -22 3 -23 3 2 730 c1 402 5 745 8 763 8 43 21 41 29 -5z
m166 -138 c41 -48 91 -107 110 -130 157 -190 413 -483 583 -667 l87 -95 0
-206 c0 -113 -3 -208 -8 -210 -4 -3 -29 -3 -55 0 -42 5 -52 10 -71 42 -36 56
-210 368 -246 440 -17 34 -33 61 -35 59 -5 -5 72 -211 144 -386 28 -67 51
-127 51 -132 0 -6 -31 -10 -69 -10 -56 0 -70 3 -76 18 -7 16 -202 532 -300
792 -23 63 -66 173 -94 243 -49 123 -131 352 -131 366 0 3 8 -4 18 -15 9 -12
51 -61 92 -109z m-266 34 c-9 -30 -60 -193 -115 -364 -54 -170 -128 -421 -163
-558 -72 -274 -121 -446 -137 -481 -10 -21 -20 -24 -92 -30 -45 -3 -98 -6
-119 -6 l-36 0 70 163 c39 89 105 252 148 362 159 408 312 772 347 825 46 71
106 150 110 146 2 -1 -4 -27 -13 -57z m-305 -369 c-68 -121 -419 -533 -459
-538 -22 -3 -23 -2 -9 10 23 18 253 287 377 441 57 70 106 127 109 127 2 0 -6
-18 -18 -40z m1465 -682 c14 -29 26 -60 26 -70 0 -10 18 -30 41 -46 22 -15 61
-43 87 -63 26 -19 54 -39 62 -43 16 -10 -77 94 -97 107 -14 8 -18 87 -5 87 11
-1 36 -21 129 -107 126 -116 115 -112 341 -113 147 0 192 3 192 13 -1 6 -7 48
-15 92 -19 106 -20 105 14 105 29 0 30 -1 36 -67 4 -38 10 -86 14 -107 l6 -40
532 -3 c292 -2 534 0 536 4 3 4 -1 51 -9 103 -7 52 -13 98 -14 101 0 3 13 6
29 7 l29 1 13 -107 14 -107 136 0 c162 0 155 -4 300 159 51 58 97 106 101 106
14 0 132 -123 213 -220 43 -52 76 -87 72 -78 -3 10 -50 82 -103 160 l-97 143
48 3 c26 2 52 -1 56 -5 5 -5 48 -89 97 -188 l90 -180 -72 -3 c-39 -2 -108 2
-153 9 -57 8 -106 9 -160 3 -92 -11 -917 -6 -1083 7 -63 4 -140 13 -170 18
-39 8 -78 7 -135 -1 -44 -6 -132 -12 -195 -12 -163 0 -725 13 -847 21 l-103 6
0 178 c0 101 4 179 9 179 5 0 21 -23 35 -52z m-344 -560 l0 -184 -337 -18
c-186 -9 -468 -26 -628 -36 -159 -11 -344 -22 -410 -25 -66 -4 -130 -8 -143
-10 -13 -2 -117 -7 -232 -11 -163 -5 -213 -4 -225 6 -12 10 -15 38 -15 142 0
122 1 130 23 152 20 20 37 24 123 30 135 9 317 23 584 47 124 10 315 26 426
34 110 8 232 18 270 21 196 17 398 30 477 33 l87 2 0 -183z m1070 131 c407
-10 467 -13 478 -27 9 -12 12 -56 10 -165 l-3 -149 -370 2 c-203 1 -516 5
-695 9 l-325 6 -3 102 -3 102 91 3 c49 2 89 0 88 -3 -6 -11 -84 -76 -100 -82
-13 -4 -18 1 -21 21 -2 15 -5 2 -6 -29 l-1 -57 303 -6 c166 -3 456 -8 645 -12
l343 -6 -3 114 -3 113 -135 2 c-403 6 -1149 24 -1172 29 -22 4 -28 11 -28 31
l0 26 223 -6 c122 -4 431 -11 687 -18z m1830 -36 c3 -2 7 -76 9 -164 l3 -159
-218 0 c-121 0 -398 3 -616 7 l-398 6 0 29 0 29 63 -5 c34 -3 297 -8 585 -11
l522 -6 0 109 0 109 -197 6 c-108 4 -283 7 -388 7 -105 0 -280 3 -388 7 l-197
6 0 26 0 26 607 -8 c335 -5 610 -11 613 -14z m555 -9 c25 -10 35 -58 35 -171
0 -156 3 -153 -149 -153 -64 0 -159 3 -211 6 -92 6 -96 8 -98 30 l-2 24 195 0
195 0 0 110 0 110 -195 0 -195 0 0 31 0 32 206 -7 c114 -4 212 -10 219 -12z
m-3265 -403 c0 -31 -5 -53 -15 -61 -13 -11 -15 -5 -15 42 0 30 3 58 7 61 16
17 23 4 23 -42z m-1692 -97 c-3 -2 -40 -7 -82 -11 -73 -6 -78 -5 -74 13 3 16
15 20 78 24 57 4 76 2 78 -8 2 -8 2 -15 0 -18z m1557 -65 c53 -50 105 -48 163
5 24 21 25 21 575 18 l552 -3 50 -26 c38 -20 69 -27 133 -31 76 -4 85 -3 122
22 l40 26 528 -3 c486 -2 530 -4 572 -21 61 -25 196 -27 230 -3 43 30 115 22
209 -23 69 -34 92 -40 145 -40 64 0 121 -14 143 -34 9 -8 -472 -10 -1835 -8
-1310 2 -1858 0 -1884 -8 -21 -6 -46 -23 -57 -39 -25 -35 -143 -244 -369 -656
-96 -176 -193 -350 -214 -387 l-39 -68 -97 -1 c-53 -1 -101 -1 -106 0 -5 1
-118 -3 -250 -9 -239 -10 -413 -17 -1221 -45 -231 -8 -460 -17 -510 -20 -504
-30 -759 -47 -807 -55 -57 -9 -171 -50 -219 -79 -29 -18 -109 -88 -109 -96 0
-14 48 -2 89 23 85 52 128 64 276 73 77 4 167 11 200 14 77 6 328 22 470 30
61 3 178 10 260 16 131 8 696 37 1090 55 72 3 157 7 190 8 276 13 727 28 730
24 3 -2 -2 -36 -9 -74 -8 -38 -18 -112 -21 -164 -4 -52 -8 -95 -9 -96 -3 -3
-1994 -24 -2222 -24 -220 0 -264 -2 -274 -15 -7 -8 -9 -22 -6 -31 6 -16 50
-17 584 -11 317 4 880 10 1250 14 l672 6 0 -351 0 -352 -173 0 -172 0 -74 94
c-79 103 -134 158 -202 202 -24 16 -46 32 -49 36 -13 18 -203 99 -285 122
-119 34 -187 43 -321 45 -141 2 -275 -19 -417 -67 -110 -36 -267 -116 -337
-170 -65 -50 -206 -196 -264 -274 l-58 -78 -232 -2 c-127 -1 -260 -1 -296 0
-80 3 -238 31 -246 43 -3 5 74 9 181 9 219 0 248 8 284 83 20 41 21 59 21 348
0 334 -2 349 -63 393 -28 21 -33 21 -1007 21 -538 0 -976 3 -974 7 3 4 37 27
77 52 l72 44 140 12 c77 6 169 14 205 17 66 5 107 20 263 92 49 23 108 46 130
51 44 11 589 32 1272 49 415 11 497 14 885 31 118 5 391 11 605 14 536 8 849
16 920 22 l60 5 39 67 c73 125 318 526 426 697 137 216 150 241 150 288 0 50
-47 100 -111 118 -68 20 -419 13 -824 -16 -194 -14 -463 -36 -485 -40 -14 -2
-77 -7 -140 -10 -142 -8 -172 -12 -235 -32 -58 -19 -111 -70 -292 -278 -388
-448 -560 -645 -599 -685 l-43 -45 167 2 c200 3 863 22 1016 30 60 3 272 0
470 -7 l361 -11 25 30 c14 16 99 151 189 298 90 147 210 340 266 428 57 88
106 170 110 183 5 19 1 25 -32 39 -33 13 -67 15 -243 9 -113 -4 -216 -8 -230
-10 -14 -2 -92 -7 -175 -11 -82 -4 -157 -9 -165 -10 -8 -2 -67 -6 -130 -9 -63
-4 -131 -9 -150 -11 -19 -3 -120 -12 -225 -20 -104 -9 -227 -25 -273 -36 -46
-10 -91 -19 -99 -19 -23 0 1 26 54 57 40 23 65 27 306 48 317 28 775 60 1147
81 126 7 222 -6 252 -33 35 -32 23 -68 -81 -237 -305 -499 -476 -773 -493
-791 -18 -20 -32 -20 -816 -21 -438 -1 -913 -5 -1054 -8 -142 -4 -258 -4 -258
0 0 6 55 76 83 106 7 7 95 110 197 228 258 300 389 450 489 559 47 51 87 97
89 101 7 17 109 88 142 99 32 10 114 20 305 36 126 11 171 16 195 20 55 9 947
76 1120 84 102 4 271 6 375 3 l190 -4 30 -29z m867 -259 c4 -41 14 -169 23
-285 8 -115 17 -230 20 -255 3 -25 10 -108 15 -185 6 -77 13 -175 16 -217 l6
-78 -25 0 c-29 0 -32 12 -42 165 -7 112 -14 199 -20 245 -3 19 -7 69 -10 110
-3 41 -8 91 -10 110 -3 19 -12 120 -20 224 -8 104 -16 191 -18 192 -1 2 -221
4 -487 5 -432 2 -488 0 -517 -14 -27 -14 -71 -76 -112 -157 -13 -27 -152 -271
-246 -435 -118 -205 -215 -380 -215 -388 0 -4 79 -7 175 -7 162 0 175 -1 185
-19 5 -11 10 -22 10 -25 0 -3 -101 -6 -225 -6 -124 0 -225 3 -225 7 0 11 114
222 298 553 97 173 199 357 227 408 30 55 64 101 81 113 28 18 51 19 569 16
l540 -2 7 -75z m2649 62 c7 -7 303 -906 333 -1009 8 -29 12 -54 8 -56 -4 -2
-345 -5 -758 -6 l-750 -2 -29 178 c-15 98 -51 318 -80 488 -29 171 -51 311
-50 313 2 2 213 3 470 3 374 0 471 -2 481 -13 17 -18 63 -134 221 -558 14 -36
37 -115 53 -176 41 -158 57 -194 86 -194 14 0 22 5 19 13 -3 6 -27 95 -55 197
-27 101 -77 261 -111 355 -137 384 -147 408 -177 424 -16 9 -899 14 -1910 12
l-273 -1 3 -27 3 -27 562 2 c369 2 564 -1 568 -8 6 -9 37 -181 50 -280 4 -25
13 -76 20 -115 8 -38 24 -135 35 -215 12 -80 23 -156 25 -170 13 -72 28 -191
24 -195 -6 -5 -1268 -9 -1273 -4 -5 5 -23 186 -36 364 -5 72 -12 146 -15 165
-2 19 -12 130 -20 246 -8 117 -17 235 -21 264 l-6 53 1298 -8 c715 -4 1302
-10 1305 -13z m-2766 -94 c12 -32 72 -752 76 -908 l2 -75 -382 -3 -383 -3 19
25 18 25 338 1 338 0 -6 73 c-3 39 -8 90 -10 112 -2 22 -7 74 -10 115 -4 41
-9 86 -11 100 -2 14 -9 75 -14 135 -16 164 -12 155 -68 155 -60 0 -129 -34
-159 -78 -14 -21 -29 -76 -44 -157 -12 -68 -25 -129 -29 -134 -4 -7 -30 -7
-80 2 l-75 12 2 40 c3 61 -24 229 -42 264 -22 44 -64 62 -163 68 -94 6 -346
-11 -401 -27 -19 -5 -36 -8 -38 -7 -8 8 166 254 187 264 36 18 929 18 935 1z
m-1965 -65 c0 -4 -20 -37 -44 -73 -45 -67 -103 -187 -198 -410 l-53 -125 -95
3 c-124 4 -187 -9 -285 -58 -98 -49 -149 -53 -186 -14 -36 38 -114 94 -133 94
-12 0 -16 10 -16 38 0 58 -18 109 -47 132 -21 16 -40 20 -107 20 -155 -1 -176
-14 -318 -202 l-82 -108 -57 0 c-99 0 -105 -11 166 315 106 127 207 247 226
267 41 45 103 64 239 73 52 4 108 9 124 11 16 1 94 6 174 10 l145 7 -7 -24
c-4 -13 -9 -39 -13 -57 l-6 -33 109 3 109 3 -3 58 -4 57 94 1 c51 1 122 5 158
9 95 10 110 11 110 3z m1231 -542 c29 -29 29 -30 29 -153 0 -96 -4 -129 -16
-146 -8 -12 -19 -22 -24 -22 -5 0 -11 60 -12 133 l-3 132 -35 0 -35 0 -6 -120
c-4 -66 -7 -132 -8 -147 l-1 -28 -101 0 c-55 0 -109 4 -119 10 -30 16 -40 66
-40 195 0 171 3 174 203 175 l139 0 29 -29z m3928 -584 c29 -87 52 -160 49
-162 -2 -3 -309 -6 -681 -7 -671 -3 -677 -3 -677 17 0 25 -36 207 -50 255 -5
19 -10 38 -10 42 0 7 618 14 1140 13 l175 0 54 -158z m-4299 98 c0 -59 -4 -63
-38 -39 -29 20 -85 10 -80 -14 3 -17 224 -172 246 -172 16 0 15 35 -3 85 -8
22 -15 70 -15 106 0 55 3 68 18 74 9 3 279 9 599 12 l581 6 12 -44 c17 -63 60
-266 60 -284 0 -14 -32 -15 -257 -13 -142 2 -581 -1 -976 -6 l-719 -8 7 83 c5
76 19 176 31 236 5 26 24 28 332 31 l202 2 0 -55z m2879 13 c15 -56 51 -245
51 -266 0 -16 -56 -17 -744 -20 l-744 -4 -7 44 c-4 23 -20 96 -36 160 -16 64
-29 119 -29 122 0 3 337 6 749 6 l748 0 12 -42z m-6254 -352 c13 -13 27 -39
30 -58 4 -19 5 -142 3 -274 -3 -177 -7 -246 -17 -266 -8 -16 -17 -28 -20 -28
-4 0 -5 124 -3 275 4 242 2 278 -12 300 l-16 25 -958 0 c-732 0 -961 -3 -970
-12 -19 -19 -17 -504 3 -542 29 -56 9 -66 -25 -12 -20 34 -21 44 -18 311 3
260 4 277 22 291 17 12 168 14 988 14 l969 0 24 -24z m5865 -56 l5 -65 165 0
165 0 3 60 c2 33 9 63 15 67 20 13 87 9 92 -4 2 -7 10 -79 18 -160 l13 -147
-83 2 c-46 1 -83 -1 -83 -5 0 -5 -17 -8 -38 -8 -53 0 -170 -34 -292 -86 -119
-50 -237 -133 -339 -238 l-63 -66 -309 0 -309 0 2 355 2 355 380 3 c210 1 442
2 516 2 l135 0 5 -65z m244 64 c10 -4 16 -18 16 -35 l0 -29 -95 0 -95 0 0 29
c0 20 6 31 18 34 26 7 138 8 156 1z m1656 -141 c5 -405 6 -393 -52 -475 l-19
-28 -336 0 -335 0 -76 68 c-151 134 -301 210 -499 252 l-53 12 0 48 c0 44 -12
153 -26 238 l-5 32 700 0 699 0 2 -147z m-3270 107 l0 -30 -110 0 -110 0 0 30
0 30 110 0 110 0 0 -30z m270 -325 l0 -355 -247 0 c-137 0 -575 -3 -975 -7
l-728 -6 0 350 0 350 188 6 c103 4 415 7 694 7 l507 0 3 -57 3 -58 178 -3 177
-2 0 65 0 65 100 0 100 0 0 -355z m-6460 210 c40 -20 62 -66 68 -140 l4 -61
-36 4 c-49 6 -126 -15 -153 -40 -13 -12 -26 -19 -29 -15 -4 3 -2 43 4 87 13
104 52 167 110 179 2 1 16 -6 32 -14z m1525 -7 c41 -32 56 -79 62 -197 5 -101
4 -109 -21 -158 -41 -82 -96 -98 -139 -40 -51 67 -61 98 -61 182 0 136 48 230
120 234 6 1 24 -9 39 -21z m-431 6 c40 -6 46 -10 46 -30 l0 -24 -424 0 c-395
0 -424 1 -428 18 -11 42 -14 42 381 42 208 0 399 -3 425 -6z m2186 -144 c452
-56 759 -328 873 -773 17 -67 28 -130 24 -140 -3 -9 -17 -17 -30 -17 -22 0
-26 8 -42 73 -64 265 -148 425 -295 559 -128 117 -318 204 -498 228 -116 16
-323 4 -438 -25 -218 -55 -360 -138 -531 -312 -113 -114 -143 -137 -157 -114
-16 26 165 228 277 310 168 122 374 195 612 214 85 7 123 7 205 -3z m-2415
-95 l-30 -24 -287 -1 -288 0 0 25 0 25 318 0 317 0 -30 -25z m7335 -16 c300
-76 543 -309 641 -614 19 -56 19 -60 2 -72 -33 -25 -32 -25 -88 112 -54 133
-101 204 -200 301 -107 105 -256 183 -410 215 -189 39 -401 13 -572 -71 -244
-120 -432 -340 -535 -625 -20 -58 -26 -65 -50 -65 -15 0 -29 4 -33 9 -8 14 36
126 91 233 170 328 456 547 779 598 93 14 277 4 375 -21z m-7043 -31 c41 -43
56 -96 56 -193 0 -147 -32 -222 -113 -262 -68 -35 -174 -26 -188 15 -3 9 13
12 58 12 70 0 105 15 147 64 42 46 58 97 57 181 0 59 -5 81 -34 140 -19 39
-36 74 -38 78 -7 15 32 -10 55 -35z m-1027 -3 c12 8 55 -53 70 -99 14 -44 7
-192 -12 -248 -16 -50 -57 -98 -94 -114 -18 -8 -58 -14 -88 -14 -44 0 -60 5
-83 25 l-28 24 63 1 c77 0 118 16 159 63 60 68 71 188 27 292 -24 57 -36 89
-27 72 3 -4 9 -5 13 -2z m882 4 c61 -27 100 -150 79 -242 -17 -72 -52 -107
-109 -107 -36 0 -50 6 -77 33 -77 77 -57 262 33 312 33 17 44 18 74 4z m-991
-16 c35 -21 55 -68 64 -154 6 -55 4 -74 -12 -110 -26 -58 -47 -74 -99 -74 -70
0 -126 68 -127 154 0 70 21 131 58 168 37 37 71 42 116 16z m749 -127 c0 -46
0 -46 -231 -46 l-219 0 -10 26 c-6 14 -10 27 -10 30 0 2 106 4 235 4 196 0
235 -2 235 -14z m5668 -269 l-10 -34 -202 -6 c-110 -4 -540 -7 -953 -7 l-753
0 0 35 0 35 323 3 c177 1 611 3 964 5 l641 2 -10 -33z m546 -2 l-26 -35 -228
0 -229 0 10 32 c5 18 9 34 9 35 0 2 110 3 246 3 l245 0 -27 -35z m-3551 -39
c97 -27 227 -95 227 -118 0 -16 -53 -88 -65 -88 -7 0 -31 14 -54 31 -32 22
-42 36 -38 50 3 12 -2 24 -16 34 -30 21 -46 19 -59 -10 -20 -44 -100 -30 -112
20 -6 23 -11 25 -60 25 -48 0 -54 -2 -60 -24 -4 -18 -17 -26 -50 -35 -43 -10
-76 -7 -76 8 0 4 -6 15 -12 24 -11 14 -19 15 -51 6 -35 -9 -38 -13 -35 -40 3
-27 -2 -33 -47 -57 l-50 -28 -48 49 c-26 27 -45 52 -42 56 9 16 139 72 219 96
72 21 97 24 226 21 95 -2 165 -9 203 -20z m4696 -5 c100 -20 185 -54 234 -94
l27 -22 -30 -47 c-17 -28 -37 -48 -48 -48 -9 0 -32 18 -50 40 -27 32 -31 43
-22 59 14 27 13 31 -10 31 -12 0 -32 -11 -46 -25 -14 -14 -36 -25 -50 -25 -38
0 -82 27 -86 52 -2 19 -10 24 -40 26 -34 3 -38 1 -38 -21 0 -28 -34 -47 -84
-47 -25 0 -35 6 -44 25 -13 27 -27 30 -66 15 -20 -7 -26 -16 -26 -40 0 -26 -7
-33 -52 -56 -31 -16 -54 -22 -56 -16 -2 6 -17 28 -33 48 -16 21 -28 42 -26 48
6 21 132 76 217 95 111 25 206 26 329 2z m1281 -130 c0 -100 -2 -112 -23 -136
-29 -34 -104 -40 -136 -11 -12 11 -21 23 -21 28 0 4 29 8 64 8 49 0 65 4 70
16 3 9 6 58 6 110 0 87 1 94 20 94 19 0 20 -7 20 -109z m-6590 91 c0 -15 -44
-51 -82 -67 -42 -17 -88 -20 -88 -6 0 17 62 55 109 67 57 16 61 16 61 6z
m-2937 -42 c60 -29 16 -40 -160 -40 -129 0 -145 5 -129 46 5 14 23 16 134 12
75 -3 138 -10 155 -18z m1023 -2 c24 -11 41 -25 38 -30 -6 -9 -755 -11 -803
-2 -36 7 -32 20 13 40 24 10 107 13 370 14 327 0 340 -1 382 -22z m932 -175
l2 -193 -385 0 -385 0 0 135 0 135 263 -2 262 -3 3 -107 3 -108 94 0 95 0 0
140 0 140 -287 1 c-159 1 -313 4 -343 8 l-55 7 35 22 c35 22 39 22 365 20
l330 -3 3 -192z m5047 147 c-9 -17 -27 -35 -41 -40 -31 -12 -384 -13 -384 -1
0 4 5 22 11 40 l11 31 209 0 210 0 -16 -30z m-485 16 c0 -1 -5 -17 -11 -35
l-11 -31 -606 0 c-334 0 -745 -3 -913 -7 l-306 -6 -11 33 c-7 18 -12 37 -12
41 0 5 421 9 935 9 514 0 935 -2 935 -4z m-2624 -108 c3 -12 23 -37 44 -57 20
-20 44 -47 53 -61 15 -24 14 -26 -14 -58 l-29 -32 -82 82 c-44 46 -80 89 -79
97 2 8 14 29 28 47 24 32 26 33 49 18 13 -9 26 -25 30 -36z m3782 9 l31 -44
-62 -61 c-35 -34 -66 -62 -69 -62 -4 0 -21 20 -38 45 l-31 45 21 28 c11 15 42
41 68 59 26 17 47 32 48 32 0 1 15 -19 32 -42z m954 -30 c62 -73 88 -109 88
-122 0 -6 -14 -22 -31 -34 l-32 -24 -46 49 c-26 27 -62 61 -80 76 l-32 28 31
44 c18 25 38 42 45 40 7 -3 33 -28 57 -57z m-5738 22 c14 -17 26 -35 26 -40 0
-6 -28 -37 -62 -69 l-62 -59 -34 39 -34 40 -96 0 -97 0 47 45 c47 45 47 45
120 45 40 1 87 7 103 15 45 20 61 18 89 -16z m-2804 -114 l0 -135 -190 0 -190
0 0 129 c0 94 3 131 13 134 6 3 92 6 190 6 l177 1 0 -135z m993 128 c3 -5 2
-65 -1 -136 l-5 -127 -438 2 -439 3 -3 128 c-2 70 -1 129 1 132 8 8 880 6 885
-2z m2427 -59 c102 -34 171 -77 240 -150 54 -59 120 -169 120 -202 0 -9 -17
12 -37 46 -48 79 -149 181 -216 217 -290 158 -634 55 -797 -240 -40 -72 -39
-70 -46 -62 -19 19 96 197 170 265 81 73 197 132 301 151 67 13 184 2 265 -25z
m4724 -4 c114 -39 208 -106 276 -196 52 -69 87 -145 95 -204 6 -50 8 -54 -47
69 -42 94 -169 219 -272 266 -146 68 -291 69 -433 5 -71 -33 -122 -68 -202
-144 -69 -66 -49 -24 27 57 88 91 175 143 287 167 61 14 202 3 269 -20z
m-1764 -9 c0 -5 -4 -21 -10 -35 l-10 -26 -879 0 -879 0 -10 30 -11 30 807 3
c444 1 849 3 900 5 52 1 92 -2 92 -7z m431 -8 c-32 -55 -27 -54 -203 -51
l-164 3 13 33 13 32 175 0 c165 0 175 -1 166 -17z m624 -123 l26 -27 -28 -57
c-20 -42 -33 -56 -48 -56 -29 0 -51 -41 -36 -68 8 -16 5 -37 -17 -99 -26 -74
-30 -78 -62 -84 -28 -5 -30 -7 -9 -8 39 -2 45 -15 39 -82 -7 -69 -19 -82 -70
-73 -19 3 -97 8 -172 11 l-138 4 0 54 0 54 142 3 143 3 8 45 c26 149 39 190
58 190 27 0 44 47 28 77 -15 27 1 71 43 119 33 37 53 36 93 -6z m-4796 -19
c11 -24 9 -35 -10 -75 -12 -26 -31 -51 -43 -56 -12 -4 -29 -17 -40 -29 -17
-19 -17 -21 -2 -27 9 -3 16 -14 16 -25 0 -22 -37 -118 -53 -138 -8 -9 -11 -44
-8 -99 l3 -85 -77 6 c-43 4 -120 7 -172 7 l-93 0 0 55 0 55 123 0 c142 0 162
7 149 55 l-8 30 -118 3 c-106 2 -118 4 -113 20 3 9 11 38 18 65 l13 47 111 1
c157 2 169 6 173 51 l3 36 -107 1 c-59 1 -109 3 -112 5 -2 3 12 32 33 65 l36
61 134 0 133 0 11 -29z m723 -25 c155 -55 269 -188 314 -366 19 -76 14 -234
-10 -311 -64 -206 -229 -331 -437 -330 -205 0 -375 148 -434 376 -19 76 -19
214 0 290 45 171 192 326 339 355 79 15 158 11 228 -14z m624 -31 c23 -51 24
-56 10 -77 -9 -12 -16 -33 -16 -45 0 -19 5 -23 30 -23 33 0 50 -22 50 -65 0
-14 -5 -35 -10 -46 -8 -13 -7 -19 0 -19 6 0 8 -5 5 -10 -3 -6 1 -17 9 -26 25
-24 19 -34 -19 -34 -30 0 -35 3 -35 23 0 42 -31 142 -71 230 l-41 88 29 28
c15 16 29 29 31 30 2 0 14 -24 28 -54z m4067 35 c157 -49 277 -179 322 -351
18 -68 19 -238 1 -304 -36 -135 -139 -267 -248 -318 -76 -36 -202 -53 -272
-36 -249 57 -416 305 -387 574 34 319 305 521 584 435z m646 -25 c26 -55 26
-54 1 -80 -28 -30 -17 -66 19 -59 24 5 29 1 45 -34 15 -33 16 -46 7 -73 -16
-46 -14 -66 9 -72 11 -3 20 -12 20 -21 0 -12 -10 -16 -35 -16 -32 0 -35 3 -40
38 -12 71 -49 187 -77 239 -15 29 -28 58 -28 65 0 13 39 58 51 58 4 0 16 -20
28 -45z m-1509 -184 c0 -10 -5 -32 -11 -50 -11 -30 -12 -31 -74 -31 l-64 0 22
50 22 50 53 0 c44 0 52 -3 52 -19z m-7075 -22 c49 -29 43 -53 -14 -57 -37 -3
-43 -1 -37 13 3 9 6 28 6 41 0 29 0 29 45 3z m6715 -39 l0 -30 -1324 0 c-1314
0 -1325 0 -1331 20 -3 11 -3 24 0 30 4 7 451 10 1331 10 l1324 0 0 -30z
m-6710 -170 l0 -50 -40 0 -40 0 0 50 0 50 40 0 40 0 0 -50z m210 0 l0 -50 -64
0 -64 0 3 48 c1 26 3 48 4 50 0 1 28 2 61 2 l60 0 0 -50z m3914 -57 c45 -30
54 -33 127 -33 l79 0 0 -37 c1 -108 7 -173 17 -185 7 -8 12 -37 11 -64 0 -51
26 -118 55 -142 8 -7 12 -22 9 -37 -6 -32 42 -113 74 -125 14 -6 24 -18 24
-30 0 -33 41 -86 92 -120 27 -17 48 -35 48 -40 0 -17 80 -68 133 -86 29 -9 55
-19 59 -23 4 -3 -305 -6 -686 -6 l-694 0 61 33 c34 17 70 32 81 32 31 0 86 59
86 92 0 20 5 28 18 28 10 0 38 18 62 40 37 34 42 43 37 70 -5 22 -3 30 7 30
22 0 72 47 86 80 9 22 10 37 2 54 -9 20 -6 26 22 48 42 33 65 98 47 132 -12
21 -11 26 8 45 11 11 23 32 26 46 3 14 7 36 10 50 3 14 1 33 -4 43 -9 17 7
115 24 141 7 12 9 12 79 -36z m-1741 -70 c4 -2 7 -26 7 -52 0 -46 -2 -49 -31
-55 -25 -5 -30 -10 -27 -28 2 -18 10 -24 40 -26 31 -3 38 -8 47 -34 17 -47 13
-64 -15 -76 -20 -10 -25 -18 -22 -40 3 -25 6 -27 44 -26 39 1 43 -2 62 -41
l20 -42 -38 -26 c-33 -21 -41 -23 -51 -11 -7 9 -32 14 -70 14 -55 0 -60 2 -69
26 -16 40 -13 44 35 44 55 0 65 16 42 66 -16 32 -20 34 -67 34 -45 0 -52 3
-60 26 -16 40 -13 44 35 44 54 0 62 13 41 64 l-15 36 -125 0 -126 0 0 40 0 40
130 0 c105 0 130 3 130 14 0 8 6 16 13 19 12 5 54 -1 70 -10z m4787 -43 c6
-50 5 -52 -22 -57 -34 -7 -41 -17 -33 -43 4 -12 15 -20 28 -20 36 0 46 -13 49
-60 2 -35 -1 -46 -17 -54 -43 -23 -45 -26 -35 -47 8 -14 21 -19 50 -19 34 0
42 -4 55 -30 21 -40 19 -55 -10 -74 -48 -31 -23 -81 34 -70 28 6 36 2 61 -27
16 -19 29 -37 30 -40 1 -17 -81 -34 -151 -31 -70 3 -77 6 -88 28 -6 14 -11 26
-11 28 0 2 23 6 50 8 28 3 53 8 56 11 3 3 -4 24 -17 46 -22 40 -24 41 -78 41
-59 0 -91 18 -91 52 0 15 8 18 48 18 27 0 51 2 54 5 3 3 0 25 -7 48 l-12 42
-144 3 c-153 3 -159 5 -159 55 l0 27 146 0 146 0 -6 23 c-4 12 -9 34 -12 50
l-6 27 -139 0 -139 0 0 40 0 40 140 0 c129 0 140 1 140 18 0 15 7 18 43 16
l42 -2 5 -52z m-7162 -22 l3 -38 -40 0 -41 0 0 41 0 40 38 -3 c35 -3 37 -5 40
-40z m206 26 c3 -9 6 -27 6 -40 0 -24 -2 -25 -67 -22 l-68 3 -3 38 -3 37 64 0
c50 0 66 -4 71 -16z m6491 -63 c3 -6 8 -51 11 -102 5 -91 22 -145 51 -162 9
-6 12 -18 8 -40 -8 -42 16 -97 56 -131 20 -17 33 -38 34 -56 2 -26 49 -100 64
-100 3 0 32 -25 64 -55 31 -30 78 -66 105 -79 l47 -25 -660 -1 c-363 -1 -680
-3 -705 -6 l-45 -4 55 31 c30 16 70 33 89 37 26 6 42 19 65 53 17 25 44 51 61
59 34 17 75 73 75 104 0 13 11 27 28 37 35 20 66 82 58 114 -5 18 -1 27 14 35
28 15 51 64 53 113 l2 42 80 8 c117 12 115 11 200 77 73 56 81 60 131 60 29 0
55 -4 59 -9z m-6675 -123 c0 -7 3 -23 6 -35 6 -21 3 -23 -34 -23 -41 0 -52 11
-52 51 0 16 7 19 40 19 25 0 40 -5 40 -12z m218 -21 l3 -28 -68 3 c-66 3 -68
4 -71 31 l-3 28 68 -3 c66 -3 68 -4 71 -31z m1896 17 c14 -36 7 -44 -39 -44
-43 0 -45 1 -45 30 0 28 2 30 39 30 26 0 41 -5 45 -16z m-170 -53 c3 -22 17
-53 31 -69 18 -21 24 -39 22 -70 -1 -32 5 -49 29 -79 17 -21 40 -42 52 -48 15
-7 21 -18 20 -40 -1 -17 6 -42 15 -55 28 -42 141 -137 208 -174 l64 -36 -495
-1 c-272 -1 -510 -2 -527 -4 -18 -1 -33 -1 -33 1 0 9 107 64 126 64 31 0 69
34 93 82 11 24 21 39 21 35 0 -17 42 16 70 55 21 29 28 48 24 64 -5 19 -1 26
19 33 36 14 71 68 71 112 1 20 9 45 18 56 9 10 24 34 32 53 11 28 22 37 58 46
71 19 75 18 82 -25z m-1679 -133 l7 -28 -56 0 c-44 0 -57 4 -66 19 -18 34 -11
40 43 43 60 3 63 2 72 -34z m1895 -25 c0 -24 -48 -14 -69 13 -28 36 -27 42 12
46 26 2 34 -2 44 -22 7 -14 12 -31 13 -37z m-2102 32 c16 -35 16 -35 -23 -35
-28 0 -38 5 -44 23 -6 16 -4 24 8 29 31 13 48 8 59 -17z m6851 -6 c6 -18 11
-34 11 -35 0 -2 -15 -4 -34 -4 -35 0 -49 11 -60 48 -7 20 -4 22 32 22 36 0 41
-3 51 -31z m-4365 -136 l26 -37 -31 -13 c-17 -7 -67 -13 -110 -13 -76 0 -79 1
-93 29 -18 35 -13 41 33 41 20 1 50 7 66 15 54 24 82 19 109 -22z m-311 -31
l19 -32 -29 0 c-22 0 -33 7 -41 25 -17 36 -15 42 10 40 14 -1 30 -14 41 -33z"/>
<path d="M6280 8312 c0 -9 60 -85 134 -168 188 -211 354 -358 518 -460 l72
-44 -226 0 -226 0 -152 75 c-169 84 -255 137 -440 268 -69 49 -131 92 -137 94
-33 13 -5 -23 80 -102 120 -112 244 -201 387 -275 127 -67 130 -63 -32 -44
-34 4 -58 2 -58 -3 0 -5 16 -25 36 -44 l35 -34 122 -2 c256 -5 2477 -8 2477
-3 0 3 -19 19 -43 35 l-42 30 -828 3 -827 3 -118 78 c-147 98 -233 171 -447
375 -223 213 -249 236 -269 236 -9 0 -16 -8 -16 -18z"/>
<path d="M5690 6890 c-36 -4 -114 -10 -175 -14 -116 -7 -119 -7 -420 -31 -104
-8 -221 -18 -260 -21 -38 -3 -86 -7 -105 -9 -19 -2 -71 -6 -115 -10 -91 -6
-192 -14 -250 -20 -22 -2 -89 -6 -150 -10 -60 -3 -134 -8 -162 -11 l-53 -5 0
-111 0 -110 108 6 c267 16 356 22 622 41 113 8 234 17 270 20 36 2 103 7 150
10 47 3 108 8 135 10 28 2 156 9 285 16 129 7 245 16 258 21 22 8 23 11 20
120 l-3 113 -45 1 c-25 1 -74 -2 -110 -6z m90 -115 c0 -17 -5 -25 -17 -25 -10
0 -112 -7 -228 -15 -115 -9 -302 -22 -415 -30 -348 -24 -633 -44 -685 -49 -27
-3 -112 -8 -187 -12 l-138 -7 0 25 0 25 211 12 c182 10 295 19 624 45 33 3 98
8 145 11 47 3 114 8 150 11 128 11 406 30 473 32 66 2 67 2 67 -23z"/>
<path d="M2607 4493 c-3 -5 -4 -39 -3 -78 l1 -70 155 0 155 0 0 75 0 75 -152
3 c-83 1 -154 -1 -156 -5z m258 -68 c0 -19 -8 -20 -102 -23 -97 -3 -103 -2
-103 17 0 18 8 20 68 23 130 6 137 5 137 -17z"/>
<path d="M4430 4475 c-18 -22 -2 -35 48 -42 32 -4 47 -14 72 -44 l31 -39 169
0 170 0 0 39 c0 21 -3 53 -6 70 l-6 31 -233 0 c-197 0 -234 -2 -245 -15z"/>
<path d="M6994 5933 c3 -16 8 -82 11 -148 9 -184 45 -688 50 -702 3 -10 79
-13 334 -13 181 0 332 3 334 8 5 9 -25 293 -47 435 -8 56 -25 173 -36 259 -11
86 -23 164 -26 172 -5 14 -44 16 -316 16 l-310 0 6 -27z"/>
<path d="M7683 5928 c11 -63 56 -403 62 -473 9 -106 35 -337 41 -362 4 -23 5
-23 214 -23 115 0 211 3 213 8 4 8 -32 242 -67 427 -13 72 -37 203 -52 293
l-28 162 -194 0 -194 0 5 -32z"/>
<path d="M8250 5951 c0 -5 6 -40 14 -78 8 -37 26 -144 40 -238 27 -175 30
-195 41 -280 8 -59 33 -218 41 -257 l6 -28 503 0 503 0 -28 93 c-42 142 -238
700 -270 770 l-13 27 -419 0 c-252 0 -418 -4 -418 -9z"/>
<path d="M8994 4797 c-10 -27 0 -62 19 -65 16 -3 18 2 15 34 -3 39 -24 57 -34
31z"/>
<path d="M9057 4803 c-4 -3 -7 -21 -7 -40 0 -23 5 -33 15 -33 11 0 15 11 15
40 0 38 -8 49 -23 33z"/>
<path d="M9107 4804 c-4 -4 -7 -22 -7 -41 0 -27 4 -33 21 -33 17 0 20 5 17 37
-3 35 -17 51 -31 37z"/>
<path d="M9154 4796 c-11 -28 0 -61 21 -61 16 0 20 7 20 35 0 25 -5 36 -18 38
-9 2 -20 -3 -23 -12z"/>
<path d="M9227 4804 c-4 -4 -7 -23 -7 -41 0 -27 4 -34 18 -31 12 2 17 13 17
37 0 33 -13 49 -28 35z"/>
<path d="M9276 4803 c-3 -4 -6 -22 -6 -40 0 -27 4 -34 18 -31 22 4 30 63 9 71
-8 3 -18 3 -21 0z"/>
<path d="M9337 4804 c-4 -4 -7 -23 -7 -41 0 -27 4 -34 18 -31 12 2 17 13 17
37 0 33 -13 49 -28 35z"/>
<path d="M9384 4797 c-10 -27 0 -62 19 -65 16 -3 18 2 15 34 -3 39 -24 57 -34
31z"/>
<path d="M9447 4804 c-4 -4 -7 -22 -7 -41 0 -27 4 -33 21 -33 17 0 20 5 17 37
-3 35 -17 51 -31 37z"/>
<path d="M9507 4804 c-4 -4 -7 -22 -7 -41 0 -27 4 -33 21 -33 17 0 20 5 17 37
-3 35 -17 51 -31 37z"/>
<path d="M9564 4796 c-11 -28 0 -61 21 -61 16 0 20 7 20 35 0 25 -5 36 -18 38
-9 2 -20 -3 -23 -12z"/>
<path d="M9624 4786 c-8 -33 1 -56 21 -56 13 0 15 9 13 37 -4 43 -25 55 -34
19z"/>
<path d="M9684 4797 c-10 -27 0 -62 19 -65 16 -3 18 2 15 34 -3 39 -24 57 -34
31z"/>
<path d="M9747 4804 c-11 -11 -8 -62 3 -69 23 -14 38 3 31 36 -6 32 -21 46
-34 33z"/>
<path d="M9790 4172 c0 -47 5 -83 12 -90 7 -7 40 -12 78 -12 38 0 71 5 78 12
7 7 12 43 12 90 l0 78 -90 0 -90 0 0 -78z m118 -29 c3 -42 2 -43 -26 -43 -18
0 -32 6 -36 16 -16 42 3 77 39 72 16 -2 21 -12 23 -45z"/>
<path d="M1689 3428 c-7 -67 -13 -63 94 -66 l97 -3 0 41 0 40 -95 0 c-69 0
-95 -3 -96 -12z"/>
<path d="M260 3390 l0 -40 100 0 100 0 0 40 0 40 -100 0 -100 0 0 -40z"/>
<path d="M703 3443 c-19 -3 -23 -11 -23 -39 l0 -34 76 0 75 0 -3 38 -3 37 -50
1 c-27 1 -60 0 -72 -3z"/>
<path d="M1255 3428 c-3 -7 -1 -26 3 -43 9 -30 9 -30 83 -30 98 0 99 1 99 46
l0 39 -90 0 c-63 0 -92 -4 -95 -12z"/>
<path d="M3702 3208 c-138 -21 -260 -133 -311 -286 -37 -108 -24 -279 29 -381
29 -58 111 -135 175 -167 53 -26 71 -29 150 -29 82 0 97 3 159 34 168 82 255
237 244 432 -7 126 -85 267 -186 336 -80 55 -168 76 -260 61z m-107 -228 c0
-29 -4 -36 -23 -38 -16 -2 -25 3 -31 20 -12 31 4 60 32 56 18 -2 22 -10 22
-38z m182 -109 c41 -61 24 -178 -31 -216 -30 -22 -79 -19 -94 5 -11 18 -9 22
20 39 51 31 58 39 58 77 0 34 -35 84 -60 84 -17 0 -11 28 8 39 33 20 75 8 99
-28z m-267 -36 c17 -21 4 -65 -19 -65 -27 0 -44 26 -37 55 7 28 36 34 56 10z
m565 -163 c-30 -105 -110 -203 -199 -243 -42 -19 -150 -26 -160 -11 -3 5 25
26 62 47 130 76 189 156 214 291 l12 63 41 3 40 3 3 -48 c2 -27 -4 -74 -13
-105z m-138 83 c-13 -90 -75 -177 -172 -239 -88 -56 -139 -69 -175 -46 -24 15
6 37 86 66 38 14 84 37 101 50 40 30 78 94 93 156 12 46 16 49 64 57 5 0 6
-19 3 -44z m-401 -100 c10 -26 -5 -65 -25 -65 -20 0 -43 42 -35 65 8 19 53 20
60 0z"/>
<path d="M8385 3205 c-232 -54 -369 -300 -310 -553 20 -83 44 -128 104 -194
34 -37 71 -64 113 -84 55 -25 74 -29 158 -29 88 0 101 3 160 32 167 84 246
224 238 421 -3 83 -8 107 -35 164 -40 86 -83 139 -147 183 -92 63 -185 83
-281 60z m-97 -213 c4 -26 -13 -52 -34 -52 -22 0 -36 37 -24 61 15 28 54 22
58 -9z m172 -107 c19 -20 25 -40 28 -89 6 -93 -33 -156 -98 -158 -50 -2 -70
46 -25 58 60 15 75 98 25 144 -33 31 -36 40 -18 58 20 20 63 14 88 -13z m-252
-72 c3 -25 -1 -33 -19 -38 -30 -10 -53 16 -45 50 5 21 12 26 34 23 22 -2 28
-9 30 -35z m585 -40 c-20 -203 -129 -344 -284 -367 -25 -4 -56 -3 -69 2 -22 8
-21 10 23 35 79 47 154 123 186 191 27 57 48 145 40 163 -4 8 91 33 102 27 4
-2 5 -25 2 -51z m-160 -15 c-12 -65 -44 -135 -80 -178 -45 -52 -143 -117 -190
-126 -34 -6 -83 8 -83 24 0 5 35 25 79 46 129 60 171 109 215 249 4 11 16 17
35 17 29 0 30 -2 24 -32z m-400 -110 c3 -12 2 -30 -4 -40 -19 -36 -59 -14 -59
34 0 24 4 28 29 28 21 0 30 -6 34 -22z"/>
</g>
</svg>
